<svg width="1600" height="1000" viewBox="0 0 1600 1000" fill="none" xmlns="http://www.w3.org/2000/svg">
  <defs>
    <linearGradient id="bg" x1="0" y1="0" x2="1600" y2="1000" gradientUnits="userSpaceOnUse">
      <stop stop-color="#F7F5EF"/>
      <stop offset="0.42" stop-color="#F3F1F8"/>
      <stop offset="1" stop-color="#EDEAF8"/>
    </linearGradient>
    <linearGradient id="panel" x1="420" y1="180" x2="1240" y2="760" gradientUnits="userSpaceOnUse">
      <stop stop-color="#FFFFFF" stop-opacity="0.96"/>
      <stop offset="1" stop-color="#F7F7FF" stop-opacity="0.88"/>
    </linearGradient>
    <linearGradient id="accent" x1="392" y1="204" x2="1212" y2="720" gradientUnits="userSpaceOnUse">
      <stop stop-color="#6C63FF" stop-opacity="0.24"/>
      <stop offset="1" stop-color="#4F46E5" stop-opacity="0.18"/>
    </linearGradient>
    <filter id="shadow" x="320" y="140" width="960" height="700" filterUnits="userSpaceOnUse" color-interpolation-filters="sRGB">
      <feFlood flood-opacity="0" result="BackgroundImageFix"/>
      <feGaussianBlur in="BackgroundImageFix" stdDeviation="14"/>
      <feComposite in2="SourceAlpha" operator="in" result="effect1_backgroundBlur_2000_1"/>
      <feBlend mode="normal" in="SourceGraphic" in2="effect1_backgroundBlur_2000_1" result="shape"/>
      <feDropShadow dx="0" dy="36" stdDeviation="42" flood-color="#15122E" flood-opacity="0.14"/>
    </filter>
    <filter id="softShadow" x="0" y="0" width="1600" height="1000" filterUnits="userSpaceOnUse" color-interpolation-filters="sRGB">
      <feDropShadow dx="0" dy="24" stdDeviation="28" flood-color="#15122E" flood-opacity="0.08"/>
    </filter>
    <radialGradient id="glow" cx="0" cy="0" r="1" gradientUnits="userSpaceOnUse" gradientTransform="translate(1090 330) rotate(136.773) scale(362.444 250.644)">
      <stop stop-color="#6C63FF" stop-opacity="0.36"/>
      <stop offset="1" stop-color="#6C63FF" stop-opacity="0"/>
    </radialGradient>
    <radialGradient id="glow2" cx="0" cy="0" r="1" gradientUnits="userSpaceOnUse" gradientTransform="translate(450 720) rotate(28.3928) scale(342.735 238.042)">
      <stop stop-color="#4F46E5" stop-opacity="0.2"/>
      <stop offset="1" stop-color="#4F46E5" stop-opacity="0"/>
    </radialGradient>
  </defs>

  <rect width="1600" height="1000" fill="url(#bg)"/>
  <rect width="1600" height="1000" fill="url(#glow)"/>
  <rect width="1600" height="1000" fill="url(#glow2)"/>

  <g opacity="0.16">
    <path d="M0 124H1600" stroke="#6C63FF"/>
    <path d="M0 220H1600" stroke="#15122E" stroke-opacity="0.25"/>
    <path d="M0 316H1600" stroke="#6C63FF"/>
    <path d="M0 412H1600" stroke="#15122E" stroke-opacity="0.22"/>
    <path d="M0 508H1600" stroke="#6C63FF"/>
    <path d="M0 604H1600" stroke="#15122E" stroke-opacity="0.22"/>
    <path d="M0 700H1600" stroke="#6C63FF"/>
    <path d="M0 796H1600" stroke="#15122E" stroke-opacity="0.22"/>
    <path d="M0 892H1600" stroke="#6C63FF"/>
    <path d="M120 0V1000" stroke="#15122E" stroke-opacity="0.16"/>
    <path d="M280 0V1000" stroke="#6C63FF"/>
    <path d="M440 0V1000" stroke="#15122E" stroke-opacity="0.16"/>
    <path d="M600 0V1000" stroke="#6C63FF"/>
    <path d="M760 0V1000" stroke="#15122E" stroke-opacity="0.16"/>
    <path d="M920 0V1000" stroke="#6C63FF"/>
    <path d="M1080 0V1000" stroke="#15122E" stroke-opacity="0.16"/>
    <path d="M1240 0V1000" stroke="#6C63FF"/>
    <path d="M1400 0V1000" stroke="#15122E" stroke-opacity="0.16"/>
  </g>

  <g filter="url(#softShadow)">
    <rect x="170" y="130" width="1260" height="760" rx="42" fill="#F9F8FF" fill-opacity="0.7"/>
  </g>

  <g filter="url(#shadow)">
    <rect x="246" y="182" width="1108" height="636" rx="36" fill="url(#panel)" stroke="#FFFFFF" stroke-opacity="0.95"/>
    <rect x="278" y="214" width="1044" height="572" rx="28" fill="#FFF" fill-opacity="0.24" stroke="#6C63FF" stroke-opacity="0.14"/>
  </g>

  <g opacity="0.95">
    <rect x="312" y="258" width="320" height="138" rx="26" fill="#FFFFFF"/>
    <rect x="312" y="258" width="320" height="138" rx="26" stroke="#15122E" stroke-opacity="0.08"/>
    <rect x="346" y="292" width="118" height="18" rx="9" fill="#6C63FF" fill-opacity="0.3"/>
    <rect x="346" y="324" width="212" height="16" rx="8" fill="#15122E" fill-opacity="0.11"/>
    <rect x="346" y="350" width="182" height="16" rx="8" fill="#15122E" fill-opacity="0.09"/>

    <rect x="312" y="420" width="320" height="138" rx="26" fill="#FFFFFF"/>
    <rect x="312" y="420" width="320" height="138" rx="26" stroke="#15122E" stroke-opacity="0.08"/>
    <rect x="346" y="454" width="138" height="18" rx="9" fill="#4F46E5" fill-opacity="0.28"/>
    <rect x="346" y="486" width="220" height="16" rx="8" fill="#15122E" fill-opacity="0.11"/>
    <rect x="346" y="512" width="160" height="16" rx="8" fill="#15122E" fill-opacity="0.09"/>

    <rect x="312" y="582" width="320" height="138" rx="26" fill="#FFFFFF"/>
    <rect x="312" y="582" width="320" height="138" rx="26" stroke="#15122E" stroke-opacity="0.08"/>
    <rect x="346" y="616" width="162" height="18" rx="9" fill="#6C63FF" fill-opacity="0.24"/>
    <rect x="346" y="648" width="202" height="16" rx="8" fill="#15122E" fill-opacity="0.11"/>
    <rect x="346" y="674" width="148" height="16" rx="8" fill="#15122E" fill-opacity="0.09"/>
  </g>

  <g>
    <rect x="676" y="240" width="448" height="538" rx="32" fill="#15122E" fill-opacity="0.96"/>
    <rect x="700" y="266" width="400" height="18" rx="9" fill="#FFFFFF" fill-opacity="0.2"/>
    <rect x="700" y="298" width="300" height="14" rx="7" fill="#FFFFFF" fill-opacity="0.12"/>

    <rect x="708" y="350" width="372" height="96" rx="24" fill="#FFFFFF" fill-opacity="0.08" stroke="#FFFFFF" stroke-opacity="0.08"/>
    <circle cx="748" cy="398" r="16" fill="#6C63FF" fill-opacity="0.95"/>
    <path d="M742 398L747 403L756 392" stroke="white" stroke-width="3" stroke-linecap="round" stroke-linejoin="round"/>
    <rect x="778" y="376" width="194" height="16" rx="8" fill="#FFFFFF" fill-opacity="0.92"/>
    <rect x="778" y="404" width="238" height="12" rx="6" fill="#FFFFFF" fill-opacity="0.16"/>
    <rect x="778" y="424" width="154" height="12" rx="6" fill="#FFFFFF" fill-opacity="0.12"/>

    <rect x="708" y="464" width="372" height="96" rx="24" fill="#FFFFFF" fill-opacity="0.08" stroke="#FFFFFF" stroke-opacity="0.08"/>
    <circle cx="748" cy="512" r="16" fill="#4F46E5" fill-opacity="0.95"/>
    <path d="M742 512L747 517L756 506" stroke="white" stroke-width="3" stroke-linecap="round" stroke-linejoin="round"/>
    <rect x="778" y="490" width="166" height="16" rx="8" fill="#FFFFFF" fill-opacity="0.92"/>
    <rect x="778" y="518" width="252" height="12" rx="6" fill="#FFFFFF" fill-opacity="0.16"/>
    <rect x="778" y="538" width="176" height="12" rx="6" fill="#FFFFFF" fill-opacity="0.12"/>

    <rect x="708" y="578" width="372" height="96" rx="24" fill="#FFFFFF" fill-opacity="0.08" stroke="#FFFFFF" stroke-opacity="0.08"/>
    <circle cx="748" cy="626" r="16" fill="#C7C3FF" fill-opacity="0.95"/>
    <path d="M742 626L747 631L756 620" stroke="#15122E" stroke-width="3" stroke-linecap="round" stroke-linejoin="round"/>
    <rect x="778" y="604" width="212" height="16" rx="8" fill="#FFFFFF" fill-opacity="0.92"/>
    <rect x="778" y="632" width="250" height="12" rx="6" fill="#FFFFFF" fill-opacity="0.16"/>
    <rect x="778" y="652" width="166" height="12" rx="6" fill="#FFFFFF" fill-opacity="0.12"/>

    <rect x="708" y="692" width="372" height="54" rx="18" fill="#FFFFFF" fill-opacity="0.08" stroke="#FFFFFF" stroke-opacity="0.08"/>
    <rect x="732" y="710" width="180" height="10" rx="5" fill="#FFFFFF" fill-opacity="0.34"/>
    <rect x="928" y="710" width="120" height="10" rx="5" fill="#6C63FF" fill-opacity="0.84"/>
  </g>

  <g>
    <path d="M602 326C653 326 685 346 708 366" stroke="#6C63FF" stroke-width="5" stroke-linecap="round" opacity="0.5"/>
    <path d="M602 488C651 488 687 484 708 478" stroke="#4F46E5" stroke-width="5" stroke-linecap="round" opacity="0.45"/>
    <path d="M602 650C653 650 687 632 708 610" stroke="#6C63FF" stroke-width="5" stroke-linecap="round" opacity="0.38"/>
    <circle cx="617" cy="326" r="8" fill="#6C63FF"/>
    <circle cx="617" cy="488" r="8" fill="#4F46E5"/>
    <circle cx="617" cy="650" r="8" fill="#6C63FF"/>
  </g>

  <g opacity="0.38">
    <circle cx="1126" cy="244" r="18" fill="#6C63FF"/>
    <circle cx="1168" cy="290" r="9" fill="#4F46E5"/>
    <circle cx="1112" cy="660" r="16" fill="#6C63FF"/>
    <circle cx="1200" cy="714" r="10" fill="#4F46E5"/>
    <circle cx="484" cy="792" r="14" fill="#6C63FF"/>
    <circle cx="540" cy="760" r="7" fill="#4F46E5"/>
  </g>

  <g opacity="0.18">
    <path d="M216 826C324 790 418 774 502 774" stroke="#15122E" stroke-width="2" stroke-dasharray="8 12"/>
    <path d="M1138 184C1214 210 1274 246 1322 300" stroke="#15122E" stroke-width="2" stroke-dasharray="8 12"/>
  </g>
</svg>
